<?xml version="1.0" encoding="utf-8"?>
<!-- Generator: Adobe Illustrator 19.1.0, SVG Export Plug-In . SVG Version: 6.00 Build 0)  -->
<svg version="1.1" id="Layer_1" xmlns="http://www.w3.org/2000/svg" xmlns:xlink="http://www.w3.org/1999/xlink" x="0px" y="0px"
	 viewBox="0 0 101.3 99" style="enable-background:new 0 0 101.3 99;" xml:space="preserve">
<style type="text/css">
	.st0{fill:#FFFFFF;stroke:#2A2A2A;stroke-miterlimit:10;}
</style>
<g>
	<path class="st0" d="M66.3,32.8c0,0-3.9-9.5-16.4-10.1c-12.5,0.6-16.4,10.1-16.4,10.1c-5.4,9.2,0,17.3,0,17.3l16.4,24l16.4-24
		C66.3,50.1,71.7,42,66.3,32.8z M49.9,49.8c-5.2,0-9.5-4.3-9.5-9.5s4.3-9.5,9.5-9.5c5.2,0,9.5,4.3,9.5,9.5S55.1,49.8,49.9,49.8z"/>
	<path class="st0" d="M49.9,86.8c-20.6,0-37.4-16.8-37.4-37.4C12.5,28.8,29.3,12,49.9,12s37.4,16.8,37.4,37.4
		C87.3,70.1,70.5,86.8,49.9,86.8z M49.9,14.1c-19.5,0-35.4,15.9-35.4,35.4s15.9,35.4,35.4,35.4s35.4-15.9,35.4-35.4
		S69.4,14.1,49.9,14.1z"/>
	<path class="st0" d="M49.9,96.9c-26.2,0-47.4-21.3-47.4-47.4C2.5,23.3,23.7,2,49.9,2s47.4,21.3,47.4,47.4
		C97.3,75.6,76.1,96.9,49.9,96.9z M49.9,4.6C25.2,4.6,5.1,24.7,5.1,49.4s20.1,44.8,44.8,44.8s44.8-20.1,44.8-44.8S74.6,4.6,49.9,4.6
		z"/>
</g>
</svg>
