<?xml version="1.0" encoding="utf-8"?>
<!-- Generator: Adobe Illustrator 19.1.0, SVG Export Plug-In . SVG Version: 6.00 Build 0)  -->
<svg version="1.1" id="Layer_1" xmlns="http://www.w3.org/2000/svg" xmlns:xlink="http://www.w3.org/1999/xlink" x="0px" y="0px"
	 viewBox="0 0 125.5 125.5" style="enable-background:new 0 0 125.5 125.5;" xml:space="preserve">
<style type="text/css">
	.st0{fill:#010101;}
	.st1{fill:#FFFFFF;}
	.st2{fill:#F7901E;}
</style>
<g>
	<path class="st2" d="M83.9,41.6c0,0-5-12.2-21.1-13c-16.1,0.8-21.1,13-21.1,13c-6.9,11.8,0,22.3,0,22.3l21.1,30.8l21.1-30.8
		C83.9,63.8,90.9,53.4,83.9,41.6z M62.8,63.4c-6.7,0-12.2-5.5-12.2-12.2S56.1,39,62.8,39C69.6,39,75,44.5,75,51.2
		S69.6,63.4,62.8,63.4z"/>
	<path class="st2" d="M62.8,111c-26.5,0-48.1-21.6-48.1-48.1c0-26.5,21.6-48.1,48.1-48.1s48.1,21.6,48.1,48.1
		C110.9,89.4,89.3,111,62.8,111z M62.8,17.5c-25.1,0-45.4,20.4-45.4,45.4s20.4,45.4,45.4,45.4s45.4-20.4,45.4-45.4
		S87.9,17.5,62.8,17.5z"/>
	<path class="st2" d="M62.8,123.8c-33.6,0-60.9-27.3-60.9-60.9C1.9,29.3,29.2,2,62.8,2s60.9,27.3,60.9,60.9
		C123.8,96.5,96.4,123.8,62.8,123.8z M62.8,5.3C31.1,5.3,5.2,31.2,5.2,62.9s25.8,57.6,57.6,57.6s57.6-25.8,57.6-57.6
		S94.6,5.3,62.8,5.3z"/>
</g>
</svg>
