<?xml version="1.0" encoding="utf-8"?>
<!-- Generator: Adobe Illustrator 19.1.0, SVG Export Plug-In . SVG Version: 6.00 Build 0)  -->
<svg version="1.1" id="Layer_1" xmlns="http://www.w3.org/2000/svg" xmlns:xlink="http://www.w3.org/1999/xlink" x="0px" y="0px"
	 viewBox="0 0 99.2 105" style="enable-background:new 0 0 99.2 105;" xml:space="preserve">
<style type="text/css">
	.st0{fill:#010101;}
</style>
<g>
	<path class="st0" d="M66.1,36.3c0,0-3.9-9.5-16.4-10.1c-12.5,0.6-16.4,10.1-16.4,10.1c-5.4,9.2,0,17.3,0,17.3l16.4,24l16.4-24
		C66.1,53.6,71.5,45.4,66.1,36.3z M49.7,53.2c-5.2,0-9.5-4.3-9.5-9.5s4.3-9.5,9.5-9.5c5.2,0,9.5,4.3,9.5,9.5S55,53.2,49.7,53.2z"/>
	<path class="st0" d="M49.7,90.3c-20.6,0-37.4-16.8-37.4-37.4c0-20.6,16.8-37.4,37.4-37.4s37.4,16.8,37.4,37.4
		C87.1,73.5,70.4,90.3,49.7,90.3z M49.7,17.5c-19.5,0-35.4,15.9-35.4,35.4s15.9,35.4,35.4,35.4s35.4-15.9,35.4-35.4
		S69.2,17.5,49.7,17.5z"/>
	<path class="st0" d="M49.7,100.3C23.6,100.3,2.3,79,2.3,52.9c0-26.2,21.3-47.4,47.4-47.4s47.4,21.3,47.4,47.4
		C97.2,79,75.9,100.3,49.7,100.3z M49.7,8C25,8,4.9,28.1,4.9,52.9S25,97.7,49.7,97.7s44.8-20.1,44.8-44.8S74.5,8,49.7,8z"/>
</g>
</svg>
