<?xml version="1.0" encoding="utf-8"?>
<!-- Generator: Adobe Illustrator 19.1.0, SVG Export Plug-In . SVG Version: 6.00 Build 0)  -->
<svg version="1.1" id="Layer_1" xmlns="http://www.w3.org/2000/svg" xmlns:xlink="http://www.w3.org/1999/xlink" x="0px" y="0px"
	 viewBox="0 0 125.5 125.5" style="enable-background:new 0 0 125.5 125.5;" xml:space="preserve">
<style type="text/css">
	.st0{fill:#010101;}
	.st1{fill:#666666;}
	.st2{fill:#999999;}
</style>
<g>
	<path class="st1" d="M83.4,41c0,0-5-12.2-21.1-13c-16.1,0.8-21.1,13-21.1,13c-6.9,11.8,0,22.3,0,22.3l21.1,30.8l21.1-30.8
		C83.4,63.3,90.4,52.8,83.4,41z M62.4,62.8c-6.7,0-12.2-5.5-12.2-12.2s5.5-12.2,12.2-12.2c6.7,0,12.2,5.5,12.2,12.2
		S69.1,62.8,62.4,62.8z"/>
	<path class="st1" d="M62.4,110.4c-26.5,0-48.1-21.6-48.1-48.1c0-26.5,21.6-48.1,48.1-48.1s48.1,21.6,48.1,48.1
		C110.4,88.9,88.8,110.4,62.4,110.4z M62.4,16.9c-25.1,0-45.4,20.4-45.4,45.4s20.4,45.4,45.4,45.4s45.4-20.4,45.4-45.4
		S87.4,16.9,62.4,16.9z"/>
	<path class="st1" d="M62.4,123.3C28.8,123.3,1.4,96,1.4,62.4c0-33.6,27.3-60.9,60.9-60.9s60.9,27.3,60.9,60.9
		C123.3,96,95.9,123.3,62.4,123.3z M62.4,4.8C30.6,4.8,4.8,30.6,4.8,62.4S30.6,120,62.4,120s57.6-25.8,57.6-57.6S94.1,4.8,62.4,4.8z
		"/>
</g>
</svg>
